<?xml version="1.0" standalone="no"?>
<!DOCTYPE svg PUBLIC "-//W3C//DTD SVG 20010904//EN"
 "http://www.w3.org/TR/2001/REC-SVG-20010904/DTD/svg10.dtd">
<svg version="1.0" xmlns="http://www.w3.org/2000/svg"
 width="317.000000pt" height="93.000000pt" viewBox="0 0 317.000000 93.000000"
 preserveAspectRatio="xMidYMid meet">
<metadata>
Created by potrace 1.15, written by Peter Selinger 2001-2017
</metadata>
<g transform="translate(0.000000,93.000000) scale(0.100000,-0.100000)"
fill="#000000" stroke="none">
<path d="M192 743 c-41 -20 -72 -78 -72 -135 0 -51 26 -103 85 -173 84 -100
99 -139 70 -194 -22 -44 -63 -53 -115 -26 l-30 16 0 -31 c0 -26 6 -33 35 -46
103 -43 195 24 195 141 0 58 -23 103 -100 200 -76 96 -83 132 -37 183 22 24
51 28 91 12 24 -9 26 -8 26 20 0 23 -6 33 -26 40 -37 15 -84 12 -122 -7z"/>
<path d="M470 450 l0 -300 40 0 40 0 0 300 0 300 -40 0 -40 0 0 -300z"/>
<path d="M670 451 l0 -301 35 0 35 0 2 203 3 202 75 -202 75 -203 33 0 32 0 0
300 0 300 -35 0 -35 0 0 -202 c0 -111 -2 -199 -6 -196 -3 3 -37 93 -77 199
l-72 194 -33 3 -32 3 0 -300z"/>
<path d="M1080 450 l0 -302 90 4 c107 5 132 19 170 94 23 46 25 59 25 204 0
145 -2 158 -25 204 -38 76 -65 90 -171 94 l-89 4 0 -302z m144 229 c41 -19 58
-71 64 -188 6 -134 -9 -214 -48 -253 -17 -16 -39 -28 -54 -28 l-26 0 0 240 c0
231 1 240 20 240 10 0 30 -5 44 -11z"/>
<path d="M1480 450 l0 -300 105 0 105 0 0 35 0 35 -65 0 -65 0 0 100 0 100 60
0 60 0 0 35 0 35 -60 0 -60 0 0 95 0 95 65 0 65 0 0 35 0 35 -105 0 -105 0 0
-300z"/>
<path d="M1807 605 l55 -146 -56 -146 c-31 -80 -56 -150 -56 -155 0 -5 16 -8
37 -6 36 3 36 4 71 96 19 50 38 92 42 92 4 0 23 -42 42 -92 35 -92 35 -93 71
-96 21 -2 37 0 37 4 0 5 -25 74 -55 155 l-56 147 50 129 c27 70 52 136 56 146
6 14 1 17 -33 17 l-40 0 -33 -89 c-18 -50 -36 -88 -40 -86 -3 3 -21 43 -38 90
l-33 85 -38 0 -38 0 55 -145z"/>
<path d="M2327 463 c-15 -158 -27 -294 -27 -300 0 -14 70 -19 70 -5 0 6 28
330 31 357 2 20 19 -53 50 -208 30 -148 33 -157 55 -157 27 0 28 3 70 210 14
74 30 141 34 148 4 8 12 -62 19 -155 7 -92 15 -176 17 -185 4 -13 16 -18 40
-18 l35 0 -5 42 c-3 24 -15 142 -26 263 -29 312 -25 295 -64 295 l-33 0 -32
-162 c-18 -90 -37 -185 -43 -213 l-11 -50 -41 210 -41 210 -35 3 -35 3 -28
-288z"/>
<path d="M2810 450 l0 -300 105 0 105 0 0 35 0 35 -65 0 -65 0 0 100 0 100 60
0 60 0 0 35 0 35 -60 0 -60 0 0 95 0 95 65 0 65 0 0 35 0 35 -105 0 -105 0 0
-300z"/>
<path d="M2136 219 c-21 -31 -1 -79 34 -79 21 0 50 31 50 53 0 21 -27 47 -50
47 -10 0 -26 -10 -34 -21z"/>
</g>
</svg>
